<svg width="610" height="103" viewBox="0 0 610 103" fill="none" xmlns="http://www.w3.org/2000/svg">
<path d="M23.0644 59.819C20.5833 33.2271 45.2332 11.4861 71.8641 13.506C156.983 19.9622 261.376 5.53986 314 5.53986C371.315 5.53986 473.639 5.53986 572.907 14.4455C594.073 16.3444 610 34.2694 610 55.521C610 78.8807 590.854 97.7346 567.573 95.8235C493.659 89.7561 423.062 74.3335 365.5 87.1321C297 102.363 248.715 69.4587 188 71.9015C137.463 73.9349 126.753 81.3238 68.6133 93.8259C46.3324 98.617 25.1816 82.5106 23.0644 59.819Z" fill="white"/>
<path d="M5.38506 51.5941C8.25341 27.0634 31.881 10.6047 56.3521 13.9439C132.978 24.3999 212.332 18.1822 314.5 18.1822C423.834 18.1822 464.398 -1.95947 552.074 2.69938C571.752 3.745 587.017 19.8037 588.419 39.4592V39.4592C590.265 65.3422 567.809 86.2129 541.959 83.9501C465.914 77.2937 427.142 84.9866 368.5 97.6484C298.238 112.819 251.277 67.6551 189 70.0884C138.644 72.0559 102.38 72.7383 44.8778 85.9635C23.3898 90.9057 2.82434 73.494 5.38506 51.5941V51.5941V51.5941Z" stroke="#003466" stroke-width="3"/>
<path d="M82.1301 53.672H91.9221C92.7141 53.672 93.2901 53.768 93.6501 53.96C94.0101 54.128 94.2501 54.404 94.3701 54.788C94.4901 55.172 94.5501 55.688 94.5501 56.336C94.5501 56.96 94.4901 57.464 94.3701 57.848C94.2501 58.232 94.0461 58.496 93.7581 58.64C93.3021 58.88 92.6781 59 91.8861 59H78.9261C77.2461 59 76.2621 58.544 75.9741 57.632C75.8301 57.248 75.7581 56.636 75.7581 55.796V35.78C75.7581 35.228 75.7701 34.82 75.7941 34.556C75.8421 34.268 75.9621 33.944 76.1541 33.584C76.4901 32.936 77.4261 32.612 78.9621 32.612C80.6421 32.612 81.6381 33.056 81.9501 33.944C82.0701 34.352 82.1301 34.976 82.1301 35.816V53.672ZM119.314 47.264C119.314 48.728 118.942 49.82 118.198 50.54C117.478 51.236 116.674 51.584 115.786 51.584H107.254C107.254 52.256 107.65 52.82 108.442 53.276C109.234 53.732 110.026 53.96 110.818 53.96C112.21 53.96 113.302 53.816 114.094 53.528L114.49 53.384C115.066 53.12 115.546 52.988 115.93 52.988C116.698 52.988 117.358 53.528 117.91 54.608C118.222 55.256 118.378 55.808 118.378 56.264C118.378 58.4 115.822 59.468 110.71 59.468C108.934 59.468 107.35 59.168 105.958 58.568C104.59 57.944 103.522 57.128 102.754 56.12C101.242 54.176 100.486 52.004 100.486 49.604C100.486 46.58 101.458 44.168 103.402 42.368C105.37 40.544 107.818 39.632 110.746 39.632C114.082 39.632 116.53 40.808 118.09 43.16C118.906 44.408 119.314 45.776 119.314 47.264ZM111.718 48.308C112.63 48.308 113.086 47.924 113.086 47.156C113.086 46.604 112.87 46.16 112.438 45.824C112.03 45.488 111.43 45.32 110.638 45.32C109.87 45.32 109.102 45.644 108.334 46.292C107.566 46.916 107.182 47.588 107.182 48.308H111.718ZM137.907 46.4L135.567 46.256V51.224C135.567 51.872 135.663 52.34 135.855 52.628C136.071 52.916 136.455 53.06 137.007 53.06C137.583 53.06 138.015 53.084 138.303 53.132C138.615 53.156 138.939 53.264 139.275 53.456C139.827 53.768 140.103 54.572 140.103 55.868C140.103 57.38 139.767 58.304 139.095 58.64C138.735 58.808 138.411 58.916 138.123 58.964C137.859 58.988 137.463 59 136.935 59C134.439 59 132.543 58.436 131.247 57.308C129.951 56.18 129.303 54.272 129.303 51.584V46.256C128.847 46.328 128.355 46.364 127.827 46.364C127.299 46.364 126.855 46.16 126.495 45.752C126.159 45.344 125.991 44.648 125.991 43.664C125.991 42.68 126.051 41.972 126.171 41.54C126.291 41.084 126.459 40.76 126.675 40.568C127.059 40.256 127.539 40.1 128.115 40.1L129.303 40.244V36.536C129.303 35.984 129.315 35.576 129.339 35.312C129.387 35.048 129.507 34.76 129.699 34.448C130.011 33.848 130.935 33.548 132.471 33.548C134.103 33.548 135.075 33.992 135.387 34.88C135.507 35.264 135.567 35.876 135.567 36.716V40.244C136.623 40.148 137.415 40.1 137.943 40.1C138.495 40.1 138.903 40.124 139.167 40.172C139.455 40.196 139.779 40.304 140.139 40.496C140.763 40.808 141.075 41.732 141.075 43.268C141.075 44.78 140.751 45.704 140.103 46.04C139.743 46.208 139.419 46.316 139.131 46.364C138.867 46.388 138.459 46.4 137.907 46.4ZM154.223 33.368C154.631 33.776 154.835 34.472 154.835 35.456V36.032C154.835 36.632 154.811 37.076 154.763 37.364C154.595 39.476 153.971 41.288 152.891 42.8C151.811 44.312 150.443 45.068 148.787 45.068C148.619 45.068 148.463 44.948 148.319 44.708C148.199 44.444 148.139 44.108 148.139 43.7C148.139 43.292 148.187 42.98 148.283 42.764C148.403 42.524 148.523 42.392 148.643 42.368C148.787 42.32 148.895 42.296 148.967 42.296C149.039 42.272 149.171 42.212 149.363 42.116C149.555 41.996 149.723 41.84 149.867 41.648C150.251 41.144 150.467 40.364 150.515 39.308C149.699 39.188 149.087 38.924 148.679 38.516C148.295 38.108 148.103 37.244 148.103 35.924C148.103 34.964 148.223 34.256 148.463 33.8C148.703 33.32 149.063 33.008 149.543 32.864C150.047 32.696 150.815 32.612 151.847 32.612C152.879 32.612 153.671 32.864 154.223 33.368ZM162.91 57.308C162.454 57.02 162.226 56.564 162.226 55.94C162.226 55.316 162.682 54.368 163.594 53.096C163.858 52.688 164.278 52.484 164.854 52.484C165.454 52.484 166.258 52.784 167.266 53.384C168.274 53.96 169.186 54.248 170.002 54.248C171.466 54.248 172.198 53.96 172.198 53.384C172.198 52.928 171.394 52.592 169.786 52.376C168.274 52.16 166.774 51.596 165.286 50.684C164.59 50.252 164.014 49.58 163.558 48.668C163.102 47.732 162.874 46.628 162.874 45.356C162.874 41.564 165.478 39.668 170.686 39.668C172.39 39.668 174.142 40.076 175.942 40.892C176.782 41.276 177.202 41.756 177.202 42.332C177.202 42.908 176.938 43.616 176.41 44.456C175.882 45.296 175.342 45.716 174.79 45.716C174.502 45.716 173.962 45.536 173.17 45.176C172.402 44.816 171.562 44.636 170.65 44.636C169.234 44.636 168.526 44.9 168.526 45.428C168.526 46.148 169.342 46.616 170.974 46.832C172.558 47 174.094 47.456 175.582 48.2C176.278 48.536 176.854 49.124 177.31 49.964C177.79 50.78 178.03 51.812 178.03 53.06C178.03 54.308 177.79 55.376 177.31 56.264C176.854 57.128 176.206 57.776 175.366 58.208C173.83 58.952 171.898 59.324 169.57 59.324C167.266 59.324 165.046 58.652 162.91 57.308ZM202.372 32.576H222.388C223.156 32.576 223.72 32.672 224.08 32.864C224.44 33.032 224.68 33.308 224.8 33.692C224.92 34.076 224.98 34.58 224.98 35.204C224.98 35.828 224.92 36.332 224.8 36.716C224.68 37.076 224.476 37.328 224.188 37.472C223.756 37.688 223.144 37.796 222.352 37.796H215.476V55.904C215.476 56.456 215.452 56.864 215.404 57.128C215.38 57.392 215.272 57.704 215.08 58.064C214.912 58.4 214.6 58.64 214.144 58.784C213.688 58.928 213.088 59 212.344 59C211.6 59 211 58.928 210.544 58.784C210.112 58.64 209.8 58.4 209.608 58.064C209.44 57.704 209.332 57.392 209.284 57.128C209.26 56.84 209.248 56.42 209.248 55.868V37.796H202.336C201.568 37.796 201.004 37.712 200.644 37.544C200.284 37.352 200.044 37.064 199.924 36.68C199.804 36.296 199.744 35.792 199.744 35.168C199.744 34.544 199.804 34.052 199.924 33.692C200.044 33.308 200.248 33.044 200.536 32.9C200.968 32.684 201.58 32.576 202.372 32.576ZM240.544 42.044C240.688 40.7 241.636 40.028 243.388 40.028C244.324 40.028 245.02 40.1 245.476 40.244C245.932 40.388 246.244 40.64 246.412 41C246.604 41.36 246.712 41.684 246.736 41.972C246.784 42.236 246.808 42.644 246.808 43.196V55.796C246.808 56.348 246.784 56.768 246.736 57.056C246.712 57.32 246.616 57.632 246.448 57.992C246.112 58.616 245.284 58.928 243.964 58.928C242.668 58.928 241.792 58.772 241.336 58.46C240.904 58.124 240.652 57.644 240.58 57.02C239.692 58.292 238.204 58.928 236.116 58.928C234.052 58.928 232.132 57.98 230.356 56.084C228.58 54.188 227.692 51.992 227.692 49.496C227.692 46.976 228.58 44.78 230.356 42.908C232.156 41.012 234.124 40.064 236.26 40.064C237.076 40.064 237.82 40.208 238.492 40.496C239.164 40.784 239.632 41.06 239.896 41.324C240.16 41.564 240.376 41.804 240.544 42.044ZM233.992 49.532C233.992 50.324 234.304 51.044 234.928 51.692C235.552 52.316 236.308 52.628 237.196 52.628C238.084 52.628 238.816 52.304 239.392 51.656C239.992 51.008 240.292 50.3 240.292 49.532C240.292 48.74 240.004 48.008 239.428 47.336C238.876 46.664 238.12 46.328 237.16 46.328C236.224 46.328 235.456 46.664 234.856 47.336C234.28 48.008 233.992 48.74 233.992 49.532ZM255.258 34.268C255.258 33.716 255.27 33.308 255.294 33.044C255.342 32.756 255.45 32.432 255.618 32.072C255.954 31.424 256.89 31.1 258.426 31.1C259.89 31.1 260.802 31.424 261.162 32.072C261.354 32.432 261.462 32.756 261.486 33.044C261.534 33.332 261.558 33.752 261.558 34.304V50.972C261.558 51.836 261.63 52.388 261.774 52.628C261.918 52.844 262.23 52.952 262.71 52.952C263.214 52.952 263.55 52.976 263.718 53.024C263.886 53.048 264.09 53.144 264.33 53.312C264.81 53.624 265.05 54.476 265.05 55.868C265.05 57.38 264.81 58.304 264.33 58.64C263.706 59.072 262.218 59.144 259.866 58.856C258.018 58.616 256.818 58.004 256.266 57.02C255.594 55.844 255.258 53.972 255.258 51.404V34.268ZM283.775 49.496L288.563 53.456C289.163 53.96 289.535 54.344 289.679 54.608C289.847 54.872 289.931 55.124 289.931 55.364C289.931 55.94 289.559 56.72 288.815 57.704C287.999 58.712 287.279 59.216 286.655 59.216C286.127 59.216 285.395 58.868 284.459 58.172L284.099 57.92C283.547 57.464 282.695 56.672 281.543 55.544C280.391 54.392 279.515 53.576 278.915 53.096V55.868C278.915 56.42 278.891 56.84 278.843 57.128C278.819 57.392 278.711 57.704 278.519 58.064C278.207 58.688 277.283 59 275.747 59C274.235 59 273.311 58.676 272.975 58.028C272.807 57.668 272.699 57.356 272.651 57.092C272.627 56.804 272.615 56.384 272.615 55.832V34.268C272.615 33.716 272.627 33.308 272.651 33.044C272.699 32.756 272.807 32.432 272.975 32.072C273.311 31.424 274.247 31.1 275.783 31.1C276.935 31.1 277.751 31.304 278.231 31.712C278.639 32.048 278.855 32.576 278.879 33.296C278.903 33.512 278.915 33.848 278.915 34.304V45.716C279.347 45.356 279.995 44.744 280.859 43.88C281.747 43.016 282.407 42.404 282.839 42.044L283.271 41.756C284.111 41.108 284.831 40.784 285.431 40.784C286.031 40.784 286.715 41.276 287.483 42.26C288.275 43.22 288.671 43.976 288.671 44.528C288.671 45.08 288.227 45.728 287.339 46.472L283.775 49.496ZM327.409 34.484L337.129 54.572C337.537 55.388 337.741 56 337.741 56.408C337.741 57.272 337.045 58.052 335.653 58.748C334.837 59.156 334.189 59.36 333.709 59.36C333.253 59.36 332.869 59.252 332.557 59.036C332.269 58.82 332.053 58.592 331.909 58.352C331.789 58.112 331.609 57.752 331.369 57.272L329.497 53.384H319.525L317.653 57.272C317.413 57.752 317.221 58.1 317.077 58.316C316.957 58.532 316.741 58.76 316.429 59C316.141 59.216 315.757 59.324 315.277 59.324C314.821 59.324 314.185 59.12 313.369 58.712C311.977 58.04 311.281 57.272 311.281 56.408C311.281 56 311.485 55.388 311.893 54.572L321.613 34.448C321.877 33.896 322.273 33.452 322.801 33.116C323.353 32.78 323.929 32.612 324.529 32.612C325.825 32.612 326.785 33.236 327.409 34.484ZM324.493 43.124L322.117 48.056H326.905L324.493 43.124ZM355.692 40.064C357.828 40.064 359.784 41.012 361.56 42.908C363.36 44.804 364.26 47.012 364.26 49.532C364.26 52.028 363.372 54.224 361.596 56.12C359.82 57.992 357.912 58.928 355.872 58.928C353.832 58.928 352.38 58.352 351.516 57.2C351.324 58.376 350.292 58.964 348.42 58.964C346.908 58.964 345.984 58.64 345.648 57.992C345.48 57.632 345.372 57.32 345.324 57.056C345.3 56.768 345.288 56.348 345.288 55.796V34.304C345.288 33.752 345.3 33.344 345.324 33.08C345.372 32.792 345.48 32.48 345.648 32.144C345.984 31.496 346.92 31.172 348.456 31.172C349.968 31.172 350.88 31.496 351.192 32.144C351.384 32.504 351.492 32.828 351.516 33.116C351.564 33.38 351.588 33.788 351.588 34.34V41.828C352.548 40.652 353.916 40.064 355.692 40.064ZM352.524 51.692C353.124 52.34 353.868 52.664 354.756 52.664C355.644 52.664 356.4 52.34 357.024 51.692C357.648 51.044 357.96 50.324 357.96 49.532C357.96 48.74 357.672 48.02 357.096 47.372C356.52 46.7 355.752 46.364 354.792 46.364C353.832 46.364 353.064 46.7 352.488 47.372C351.936 48.044 351.66 48.776 351.66 49.568C351.66 50.336 351.948 51.044 352.524 51.692ZM371.633 49.532C371.633 46.652 372.641 44.276 374.657 42.404C376.673 40.532 378.977 39.596 381.569 39.596C384.161 39.596 386.453 40.532 388.445 42.404C390.437 44.252 391.433 46.616 391.433 49.496C391.433 51.488 390.917 53.264 389.885 54.824C388.853 56.36 387.593 57.5 386.105 58.244C384.641 58.964 383.117 59.324 381.533 59.324C379.949 59.324 378.413 58.94 376.925 58.172C375.437 57.38 374.177 56.228 373.145 54.716C372.137 53.18 371.633 51.452 371.633 49.532ZM379.157 52.124C379.925 52.7 380.705 52.988 381.497 52.988C382.289 52.988 383.081 52.688 383.873 52.088C384.665 51.488 385.061 50.6 385.061 49.424C385.061 48.248 384.689 47.372 383.945 46.796C383.201 46.22 382.397 45.932 381.533 45.932C380.669 45.932 379.865 46.232 379.121 46.832C378.377 47.432 378.005 48.32 378.005 49.496C378.005 50.648 378.389 51.524 379.157 52.124ZM407.763 58.928C405.339 58.928 403.323 58.016 401.715 56.192C400.131 54.344 399.339 52.1 399.339 49.46V43.16C399.339 42.584 399.351 42.164 399.375 41.9C399.423 41.636 399.531 41.324 399.699 40.964C400.035 40.316 400.971 39.992 402.507 39.992C404.187 39.992 405.171 40.448 405.459 41.36C405.603 41.744 405.675 42.356 405.675 43.196V49.496C405.675 50.48 405.951 51.248 406.503 51.8C407.079 52.352 407.835 52.628 408.771 52.628C409.731 52.628 410.499 52.34 411.075 51.764C411.675 51.188 411.975 50.432 411.975 49.496V43.124C411.975 42.572 411.987 42.164 412.011 41.9C412.059 41.612 412.179 41.288 412.371 40.928C412.683 40.304 413.607 39.992 415.143 39.992C416.655 39.992 417.579 40.316 417.915 40.964C418.083 41.324 418.179 41.648 418.203 41.936C418.251 42.2 418.275 42.608 418.275 43.16V55.904C418.275 56.432 418.251 56.84 418.203 57.128C418.179 57.392 418.071 57.692 417.879 58.028C417.519 58.652 416.595 58.964 415.107 58.964C413.643 58.964 412.743 58.676 412.407 58.1C412.167 57.692 412.047 57.2 412.047 56.624C411.951 56.792 411.735 57.032 411.399 57.344C411.063 57.656 410.739 57.92 410.427 58.136C409.611 58.664 408.723 58.928 407.763 58.928ZM437.767 46.4L435.427 46.256V51.224C435.427 51.872 435.523 52.34 435.715 52.628C435.931 52.916 436.315 53.06 436.867 53.06C437.443 53.06 437.875 53.084 438.163 53.132C438.475 53.156 438.799 53.264 439.135 53.456C439.687 53.768 439.963 54.572 439.963 55.868C439.963 57.38 439.627 58.304 438.955 58.64C438.595 58.808 438.271 58.916 437.983 58.964C437.719 58.988 437.323 59 436.795 59C434.299 59 432.403 58.436 431.107 57.308C429.811 56.18 429.163 54.272 429.163 51.584V46.256C428.707 46.328 428.215 46.364 427.687 46.364C427.159 46.364 426.715 46.16 426.355 45.752C426.019 45.344 425.851 44.648 425.851 43.664C425.851 42.68 425.911 41.972 426.031 41.54C426.151 41.084 426.319 40.76 426.535 40.568C426.919 40.256 427.399 40.1 427.975 40.1L429.163 40.244V36.536C429.163 35.984 429.175 35.576 429.199 35.312C429.247 35.048 429.367 34.76 429.559 34.448C429.871 33.848 430.795 33.548 432.331 33.548C433.963 33.548 434.935 33.992 435.247 34.88C435.367 35.264 435.427 35.876 435.427 36.716V40.244C436.483 40.148 437.275 40.1 437.803 40.1C438.355 40.1 438.763 40.124 439.027 40.172C439.315 40.196 439.639 40.304 439.999 40.496C440.623 40.808 440.935 41.732 440.935 43.268C440.935 44.78 440.611 45.704 439.963 46.04C439.603 46.208 439.279 46.316 438.991 46.364C438.727 46.388 438.319 46.4 437.767 46.4ZM484.14 33.116C485.316 33.932 485.904 34.724 485.904 35.492C485.904 35.948 485.628 36.584 485.076 37.4L477.3 49.028V55.904C477.3 56.456 477.276 56.876 477.228 57.164C477.204 57.428 477.096 57.74 476.904 58.1C476.712 58.46 476.388 58.712 475.932 58.856C475.476 59 474.864 59.072 474.096 59.072C473.328 59.072 472.716 59 472.26 58.856C471.804 58.712 471.48 58.46 471.288 58.1C471.096 57.716 470.976 57.392 470.928 57.128C470.904 56.84 470.892 56.408 470.892 55.832V49.028L463.116 37.4C462.564 36.584 462.288 35.948 462.288 35.492C462.288 34.724 462.816 33.992 463.872 33.296C464.928 32.576 465.684 32.216 466.14 32.216C466.596 32.216 466.956 32.312 467.22 32.504C467.628 32.768 468.06 33.26 468.516 33.98L474.096 42.908L479.676 33.98C480.132 33.26 480.528 32.792 480.864 32.576C481.2 32.336 481.584 32.216 482.016 32.216C482.472 32.216 483.18 32.516 484.14 33.116ZM488.584 49.532C488.584 46.652 489.592 44.276 491.608 42.404C493.624 40.532 495.928 39.596 498.52 39.596C501.112 39.596 503.404 40.532 505.396 42.404C507.388 44.252 508.384 46.616 508.384 49.496C508.384 51.488 507.868 53.264 506.836 54.824C505.804 56.36 504.544 57.5 503.056 58.244C501.592 58.964 500.068 59.324 498.484 59.324C496.9 59.324 495.364 58.94 493.876 58.172C492.388 57.38 491.128 56.228 490.096 54.716C489.088 53.18 488.584 51.452 488.584 49.532ZM496.108 52.124C496.876 52.7 497.656 52.988 498.448 52.988C499.24 52.988 500.032 52.688 500.824 52.088C501.616 51.488 502.012 50.6 502.012 49.424C502.012 48.248 501.64 47.372 500.896 46.796C500.152 46.22 499.348 45.932 498.484 45.932C497.62 45.932 496.816 46.232 496.072 46.832C495.328 47.432 494.956 48.32 494.956 49.496C494.956 50.648 495.34 51.524 496.108 52.124ZM524.714 58.928C522.29 58.928 520.274 58.016 518.666 56.192C517.082 54.344 516.29 52.1 516.29 49.46V43.16C516.29 42.584 516.302 42.164 516.326 41.9C516.374 41.636 516.482 41.324 516.65 40.964C516.986 40.316 517.922 39.992 519.458 39.992C521.138 39.992 522.122 40.448 522.41 41.36C522.554 41.744 522.626 42.356 522.626 43.196V49.496C522.626 50.48 522.902 51.248 523.454 51.8C524.03 52.352 524.786 52.628 525.722 52.628C526.682 52.628 527.45 52.34 528.026 51.764C528.626 51.188 528.926 50.432 528.926 49.496V43.124C528.926 42.572 528.938 42.164 528.962 41.9C529.01 41.612 529.13 41.288 529.322 40.928C529.634 40.304 530.558 39.992 532.094 39.992C533.606 39.992 534.53 40.316 534.866 40.964C535.034 41.324 535.13 41.648 535.154 41.936C535.202 42.2 535.226 42.608 535.226 43.16V55.904C535.226 56.432 535.202 56.84 535.154 57.128C535.13 57.392 535.022 57.692 534.83 58.028C534.47 58.652 533.546 58.964 532.058 58.964C530.594 58.964 529.694 58.676 529.358 58.1C529.118 57.692 528.998 57.2 528.998 56.624C528.902 56.792 528.686 57.032 528.35 57.344C528.014 57.656 527.69 57.92 527.378 58.136C526.562 58.664 525.674 58.928 524.714 58.928Z" fill="#003466"/>
</svg>
