<svg width="610" height="103" viewBox="0 0 610 103" fill="none" xmlns="http://www.w3.org/2000/svg">
<path d="M23.0644 59.819C20.5833 33.2271 45.2332 11.4861 71.8641 13.506C156.983 19.9622 261.376 5.53986 314 5.53986C371.315 5.53986 473.639 5.53986 572.907 14.4455C594.073 16.3444 610 34.2694 610 55.521C610 78.8807 590.854 97.7346 567.573 95.8235C493.659 89.7561 423.062 74.3335 365.5 87.1321C297 102.363 248.715 69.4587 188 71.9015C137.463 73.9349 126.753 81.3238 68.6133 93.8259C46.3324 98.617 25.1816 82.5106 23.0644 59.819Z" fill="#FFCC66"/>
<path d="M5.38506 51.5941C8.25341 27.0634 31.881 10.6047 56.3521 13.9439C132.978 24.3999 212.332 18.1822 314.5 18.1822C423.834 18.1822 464.398 -1.95947 552.074 2.69938C571.752 3.745 587.017 19.8037 588.419 39.4592V39.4592C590.265 65.3422 567.809 86.2129 541.959 83.9501C465.914 77.2937 427.142 84.9866 368.5 97.6484C298.238 112.819 251.277 67.6551 189 70.0884C138.644 72.0559 102.38 72.7383 44.8778 85.9635C23.3898 90.9057 2.82434 73.494 5.38506 51.5941V51.5941V51.5941Z" stroke="white" stroke-width="3"/>
<path d="M135.121 32.288C138.673 32.288 141.757 33.572 144.373 36.14C146.989 38.708 148.297 41.9 148.297 45.716C148.297 49.508 147.049 52.748 144.553 55.436C142.057 58.1 138.985 59.432 135.337 59.432C131.689 59.432 128.581 58.112 126.013 55.472C123.469 52.832 122.197 49.688 122.197 46.04C122.197 44.048 122.557 42.188 123.277 40.46C123.997 38.708 124.957 37.244 126.157 36.068C127.357 34.892 128.737 33.968 130.297 33.296C131.857 32.624 133.465 32.288 135.121 32.288ZM128.569 45.86C128.569 47.996 129.253 49.736 130.621 51.08C132.013 52.4 133.561 53.06 135.265 53.06C136.969 53.06 138.505 52.412 139.873 51.116C141.241 49.82 141.925 48.08 141.925 45.896C141.925 43.712 141.229 41.96 139.837 40.64C138.469 39.32 136.933 38.66 135.229 38.66C133.525 38.66 131.989 39.332 130.621 40.676C129.253 41.996 128.569 43.724 128.569 45.86ZM166.779 40.028C169.179 40.028 171.171 40.952 172.755 42.8C174.363 44.624 175.167 46.856 175.167 49.496V55.832C175.167 56.384 175.143 56.804 175.095 57.092C175.071 57.356 174.975 57.656 174.807 57.992C174.471 58.64 173.535 58.964 171.999 58.964C170.295 58.964 169.311 58.52 169.047 57.632C168.903 57.224 168.831 56.612 168.831 55.796V49.46C168.831 48.476 168.543 47.708 167.967 47.156C167.415 46.604 166.659 46.328 165.699 46.328C164.763 46.328 163.995 46.616 163.395 47.192C162.819 47.768 162.531 48.524 162.531 49.46V55.832C162.531 56.384 162.507 56.804 162.459 57.092C162.435 57.356 162.327 57.656 162.135 57.992C161.823 58.64 160.899 58.964 159.363 58.964C157.851 58.964 156.927 58.64 156.591 57.992C156.423 57.632 156.315 57.32 156.267 57.056C156.243 56.768 156.231 56.348 156.231 55.796V43.052C156.231 42.524 156.243 42.128 156.267 41.864C156.315 41.576 156.435 41.264 156.627 40.928C156.963 40.328 157.887 40.028 159.399 40.028C160.863 40.028 161.763 40.304 162.099 40.856C162.339 41.264 162.459 41.756 162.459 42.332C162.555 42.164 162.771 41.924 163.107 41.612C163.443 41.3 163.767 41.048 164.079 40.856C164.895 40.304 165.795 40.028 166.779 40.028ZM183.644 34.268C183.644 33.716 183.656 33.308 183.68 33.044C183.728 32.756 183.836 32.432 184.004 32.072C184.34 31.424 185.276 31.1 186.812 31.1C188.276 31.1 189.188 31.424 189.548 32.072C189.74 32.432 189.848 32.756 189.872 33.044C189.92 33.332 189.944 33.752 189.944 34.304V50.972C189.944 51.836 190.016 52.388 190.16 52.628C190.304 52.844 190.616 52.952 191.096 52.952C191.6 52.952 191.936 52.976 192.104 53.024C192.272 53.048 192.476 53.144 192.716 53.312C193.196 53.624 193.436 54.476 193.436 55.868C193.436 57.38 193.196 58.304 192.716 58.64C192.092 59.072 190.604 59.144 188.252 58.856C186.404 58.616 185.204 58.004 184.652 57.02C183.98 55.844 183.644 53.972 183.644 51.404V34.268ZM201.001 43.196C201.001 42.644 201.013 42.236 201.037 41.972C201.085 41.684 201.193 41.36 201.361 41C201.697 40.376 202.633 40.064 204.169 40.064C205.321 40.064 206.137 40.268 206.617 40.676C207.025 41.012 207.241 41.528 207.265 42.224C207.289 42.464 207.301 42.812 207.301 43.268V55.868C207.301 56.42 207.277 56.84 207.229 57.128C207.205 57.392 207.097 57.704 206.905 58.064C206.593 58.688 205.669 59 204.133 59C202.621 59 201.697 58.676 201.361 58.028C201.193 57.668 201.085 57.356 201.037 57.092C201.013 56.828 201.001 56.408 201.001 55.832V43.196ZM206.905 36.536C206.737 36.872 206.425 37.112 205.969 37.256C205.513 37.4 204.901 37.472 204.133 37.472C203.389 37.472 202.789 37.4 202.333 37.256C201.877 37.112 201.553 36.86 201.361 36.5C201.193 36.14 201.085 35.828 201.037 35.564C201.013 35.276 201.001 34.856 201.001 34.304C201.001 33.752 201.013 33.344 201.037 33.08C201.085 32.792 201.193 32.48 201.361 32.144C201.697 31.496 202.633 31.172 204.169 31.172C205.681 31.172 206.593 31.496 206.905 32.144C207.097 32.504 207.205 32.828 207.229 33.116C207.277 33.38 207.301 33.788 207.301 34.34C207.301 34.892 207.277 35.312 207.229 35.6C207.205 35.864 207.097 36.176 206.905 36.536ZM226.305 40.028C228.705 40.028 230.697 40.952 232.281 42.8C233.889 44.624 234.693 46.856 234.693 49.496V55.832C234.693 56.384 234.669 56.804 234.621 57.092C234.597 57.356 234.501 57.656 234.333 57.992C233.997 58.64 233.061 58.964 231.525 58.964C229.821 58.964 228.837 58.52 228.573 57.632C228.429 57.224 228.357 56.612 228.357 55.796V49.46C228.357 48.476 228.069 47.708 227.493 47.156C226.941 46.604 226.185 46.328 225.225 46.328C224.289 46.328 223.521 46.616 222.921 47.192C222.345 47.768 222.057 48.524 222.057 49.46V55.832C222.057 56.384 222.033 56.804 221.985 57.092C221.961 57.356 221.853 57.656 221.661 57.992C221.349 58.64 220.425 58.964 218.889 58.964C217.377 58.964 216.453 58.64 216.117 57.992C215.949 57.632 215.841 57.32 215.793 57.056C215.769 56.768 215.757 56.348 215.757 55.796V43.052C215.757 42.524 215.769 42.128 215.793 41.864C215.841 41.576 215.961 41.264 216.153 40.928C216.489 40.328 217.413 40.028 218.925 40.028C220.389 40.028 221.289 40.304 221.625 40.856C221.865 41.264 221.985 41.756 221.985 42.332C222.081 42.164 222.297 41.924 222.633 41.612C222.969 41.3 223.293 41.048 223.605 40.856C224.421 40.304 225.321 40.028 226.305 40.028ZM261.457 47.264C261.457 48.728 261.085 49.82 260.341 50.54C259.621 51.236 258.817 51.584 257.929 51.584H249.397C249.397 52.256 249.793 52.82 250.585 53.276C251.377 53.732 252.169 53.96 252.961 53.96C254.353 53.96 255.445 53.816 256.237 53.528L256.633 53.384C257.209 53.12 257.689 52.988 258.073 52.988C258.841 52.988 259.501 53.528 260.053 54.608C260.365 55.256 260.521 55.808 260.521 56.264C260.521 58.4 257.965 59.468 252.853 59.468C251.077 59.468 249.493 59.168 248.101 58.568C246.733 57.944 245.665 57.128 244.897 56.12C243.385 54.176 242.629 52.004 242.629 49.604C242.629 46.58 243.601 44.168 245.545 42.368C247.513 40.544 249.961 39.632 252.889 39.632C256.225 39.632 258.673 40.808 260.233 43.16C261.049 44.408 261.457 45.776 261.457 47.264ZM253.861 48.308C254.773 48.308 255.229 47.924 255.229 47.156C255.229 46.604 255.013 46.16 254.581 45.824C254.173 45.488 253.573 45.32 252.781 45.32C252.013 45.32 251.245 45.644 250.477 46.292C249.709 46.916 249.325 47.588 249.325 48.308H253.861ZM312.115 33.62C312.307 33.98 312.415 34.304 312.439 34.592C312.487 34.88 312.511 35.3 312.511 35.852V55.832C312.511 57.488 312.055 58.46 311.143 58.748C310.687 58.892 310.111 58.964 309.415 58.964C308.719 58.964 308.167 58.904 307.759 58.784C307.351 58.664 307.039 58.52 306.823 58.352C306.607 58.184 306.439 57.944 306.319 57.632C306.199 57.224 306.139 56.6 306.139 55.76V43.7C305.539 44.444 304.663 45.632 303.511 47.264C302.359 48.872 301.627 49.88 301.315 50.288C301.003 50.696 300.787 50.984 300.667 51.152C300.547 51.296 300.247 51.512 299.767 51.8C299.311 52.064 298.807 52.196 298.255 52.196C297.727 52.196 297.235 52.076 296.779 51.836C296.347 51.572 296.035 51.32 295.843 51.08L295.555 50.684C295.075 50.084 294.127 48.812 292.711 46.868C291.295 44.9 290.527 43.844 290.407 43.7V55.832C290.407 56.384 290.383 56.804 290.335 57.092C290.311 57.356 290.203 57.656 290.011 57.992C289.651 58.64 288.715 58.964 287.203 58.964C285.739 58.964 284.827 58.64 284.467 57.992C284.275 57.656 284.155 57.344 284.107 57.056C284.083 56.768 284.071 56.336 284.071 55.76V35.78C284.071 35.228 284.083 34.82 284.107 34.556C284.155 34.268 284.275 33.944 284.467 33.584C284.827 32.96 285.763 32.648 287.275 32.648C287.923 32.648 288.475 32.732 288.931 32.9C289.411 33.044 289.723 33.2 289.867 33.368L290.083 33.584L298.255 44.312C302.335 38.912 305.059 35.348 306.427 33.62C306.835 32.972 307.795 32.648 309.307 32.648C310.843 32.648 311.779 32.972 312.115 33.62ZM333.287 42.044C333.431 40.7 334.379 40.028 336.131 40.028C337.067 40.028 337.763 40.1 338.219 40.244C338.675 40.388 338.987 40.64 339.155 41C339.347 41.36 339.455 41.684 339.479 41.972C339.527 42.236 339.551 42.644 339.551 43.196V55.796C339.551 56.348 339.527 56.768 339.479 57.056C339.455 57.32 339.359 57.632 339.191 57.992C338.855 58.616 338.027 58.928 336.707 58.928C335.411 58.928 334.535 58.772 334.079 58.46C333.647 58.124 333.395 57.644 333.323 57.02C332.435 58.292 330.947 58.928 328.859 58.928C326.795 58.928 324.875 57.98 323.099 56.084C321.323 54.188 320.435 51.992 320.435 49.496C320.435 46.976 321.323 44.78 323.099 42.908C324.899 41.012 326.867 40.064 329.003 40.064C329.819 40.064 330.563 40.208 331.235 40.496C331.907 40.784 332.375 41.06 332.639 41.324C332.903 41.564 333.119 41.804 333.287 42.044ZM326.735 49.532C326.735 50.324 327.047 51.044 327.671 51.692C328.295 52.316 329.051 52.628 329.939 52.628C330.827 52.628 331.559 52.304 332.135 51.656C332.735 51.008 333.035 50.3 333.035 49.532C333.035 48.74 332.747 48.008 332.171 47.336C331.619 46.664 330.863 46.328 329.903 46.328C328.967 46.328 328.199 46.664 327.599 47.336C327.023 48.008 326.735 48.74 326.735 49.532ZM360.024 56.624C359.112 57.824 357.66 58.424 355.668 58.424C353.676 58.424 351.804 57.512 350.052 55.688C348.324 53.84 347.46 51.692 347.46 49.244C347.46 46.796 348.336 44.648 350.088 42.8C351.84 40.952 353.76 40.028 355.848 40.028C356.664 40.028 357.408 40.184 358.08 40.496C358.752 40.784 359.208 41.06 359.448 41.324C359.712 41.564 359.916 41.792 360.06 42.008C360.132 41.336 360.372 40.832 360.78 40.496C361.212 40.136 361.896 39.956 362.832 39.956C363.768 39.956 364.452 40.028 364.884 40.172C365.316 40.316 365.616 40.568 365.784 40.928C365.976 41.264 366.084 41.564 366.108 41.828C366.156 42.092 366.18 42.5 366.18 43.052V57.956C366.18 60.716 365.22 62.936 363.3 64.616C361.38 66.32 359.22 67.172 356.82 67.172C354.996 67.172 353.256 66.728 351.6 65.84C349.944 64.952 349.116 64.148 349.116 63.428C349.116 62.492 349.476 61.664 350.196 60.944C350.652 60.44 351 60.092 351.24 59.9C351.504 59.708 351.804 59.612 352.14 59.612C352.476 59.612 352.824 59.756 353.184 60.044C354.336 60.932 355.584 61.376 356.928 61.376C357.84 61.376 358.584 61.016 359.16 60.296C359.736 59.576 360.024 58.712 360.024 57.704V56.624ZM353.616 49.28C353.616 50.048 353.916 50.744 354.516 51.368C355.14 51.992 355.884 52.304 356.748 52.304C357.636 52.304 358.368 51.992 358.944 51.368C359.52 50.72 359.808 50.024 359.808 49.28C359.808 48.512 359.532 47.804 358.98 47.156C358.428 46.484 357.684 46.148 356.748 46.148C355.812 46.148 355.056 46.472 354.48 47.12C353.904 47.768 353.616 48.488 353.616 49.28ZM386.951 42.044C387.095 40.7 388.043 40.028 389.795 40.028C390.731 40.028 391.427 40.1 391.883 40.244C392.339 40.388 392.651 40.64 392.819 41C393.011 41.36 393.119 41.684 393.143 41.972C393.191 42.236 393.215 42.644 393.215 43.196V55.796C393.215 56.348 393.191 56.768 393.143 57.056C393.119 57.32 393.023 57.632 392.855 57.992C392.519 58.616 391.691 58.928 390.371 58.928C389.075 58.928 388.199 58.772 387.743 58.46C387.311 58.124 387.059 57.644 386.987 57.02C386.099 58.292 384.611 58.928 382.523 58.928C380.459 58.928 378.539 57.98 376.763 56.084C374.987 54.188 374.099 51.992 374.099 49.496C374.099 46.976 374.987 44.78 376.763 42.908C378.563 41.012 380.531 40.064 382.667 40.064C383.483 40.064 384.227 40.208 384.899 40.496C385.571 40.784 386.039 41.06 386.303 41.324C386.567 41.564 386.783 41.804 386.951 42.044ZM380.399 49.532C380.399 50.324 380.711 51.044 381.335 51.692C381.959 52.316 382.715 52.628 383.603 52.628C384.491 52.628 385.223 52.304 385.799 51.656C386.399 51.008 386.699 50.3 386.699 49.532C386.699 48.74 386.411 48.008 385.835 47.336C385.283 46.664 384.527 46.328 383.567 46.328C382.631 46.328 381.863 46.664 381.263 47.336C380.687 48.008 380.399 48.74 380.399 49.532ZM411.132 52.664H417.288C418.248 52.664 418.932 52.784 419.34 53.024C419.772 53.264 420.06 53.612 420.204 54.068C420.348 54.524 420.42 55.124 420.42 55.868C420.42 56.612 420.348 57.212 420.204 57.668C420.06 58.124 419.808 58.448 419.448 58.64C419.088 58.808 418.764 58.916 418.476 58.964C418.212 58.988 417.804 59 417.252 59H404.256C403.416 59 402.684 58.688 402.06 58.064C401.436 57.44 401.124 56.696 401.124 55.832C401.124 54.968 401.436 54.236 402.06 53.636C402.684 53.012 403.644 52.124 404.94 50.972C406.236 49.82 407.412 48.788 408.468 47.876C409.524 46.94 410.1 46.424 410.196 46.328H405.12C403.752 46.328 402.888 46.1 402.528 45.644C402.12 45.116 401.916 44.42 401.916 43.556C401.916 42.692 401.976 42.056 402.096 41.648C402.216 41.216 402.36 40.904 402.528 40.712C402.696 40.496 402.936 40.328 403.248 40.208C403.656 40.088 404.28 40.028 405.12 40.028H416.82C417.66 40.028 418.392 40.328 419.016 40.928C419.64 41.528 419.952 42.284 419.952 43.196C419.952 44.084 419.592 44.876 418.872 45.572C418.152 46.268 415.572 48.632 411.132 52.664ZM428.338 43.196C428.338 42.644 428.35 42.236 428.374 41.972C428.422 41.684 428.53 41.36 428.698 41C429.034 40.376 429.97 40.064 431.506 40.064C432.658 40.064 433.474 40.268 433.954 40.676C434.362 41.012 434.578 41.528 434.602 42.224C434.626 42.464 434.638 42.812 434.638 43.268V55.868C434.638 56.42 434.614 56.84 434.566 57.128C434.542 57.392 434.434 57.704 434.242 58.064C433.93 58.688 433.006 59 431.47 59C429.958 59 429.034 58.676 428.698 58.028C428.53 57.668 428.422 57.356 428.374 57.092C428.35 56.828 428.338 56.408 428.338 55.832V43.196ZM434.242 36.536C434.074 36.872 433.762 37.112 433.306 37.256C432.85 37.4 432.238 37.472 431.47 37.472C430.726 37.472 430.126 37.4 429.67 37.256C429.214 37.112 428.89 36.86 428.698 36.5C428.53 36.14 428.422 35.828 428.374 35.564C428.35 35.276 428.338 34.856 428.338 34.304C428.338 33.752 428.35 33.344 428.374 33.08C428.422 32.792 428.53 32.48 428.698 32.144C429.034 31.496 429.97 31.172 431.506 31.172C433.018 31.172 433.93 31.496 434.242 32.144C434.434 32.504 434.542 32.828 434.566 33.116C434.614 33.38 434.638 33.788 434.638 34.34C434.638 34.892 434.614 35.312 434.566 35.6C434.542 35.864 434.434 36.176 434.242 36.536ZM453.642 40.028C456.042 40.028 458.034 40.952 459.618 42.8C461.226 44.624 462.03 46.856 462.03 49.496V55.832C462.03 56.384 462.006 56.804 461.958 57.092C461.934 57.356 461.838 57.656 461.67 57.992C461.334 58.64 460.398 58.964 458.862 58.964C457.158 58.964 456.174 58.52 455.91 57.632C455.766 57.224 455.694 56.612 455.694 55.796V49.46C455.694 48.476 455.406 47.708 454.83 47.156C454.278 46.604 453.522 46.328 452.562 46.328C451.626 46.328 450.858 46.616 450.258 47.192C449.682 47.768 449.394 48.524 449.394 49.46V55.832C449.394 56.384 449.37 56.804 449.322 57.092C449.298 57.356 449.19 57.656 448.998 57.992C448.686 58.64 447.762 58.964 446.226 58.964C444.714 58.964 443.79 58.64 443.454 57.992C443.286 57.632 443.178 57.32 443.13 57.056C443.106 56.768 443.094 56.348 443.094 55.796V43.052C443.094 42.524 443.106 42.128 443.13 41.864C443.178 41.576 443.298 41.264 443.49 40.928C443.826 40.328 444.75 40.028 446.262 40.028C447.726 40.028 448.626 40.304 448.962 40.856C449.202 41.264 449.322 41.756 449.322 42.332C449.418 42.164 449.634 41.924 449.97 41.612C450.306 41.3 450.63 41.048 450.942 40.856C451.758 40.304 452.658 40.028 453.642 40.028ZM488.794 47.264C488.794 48.728 488.422 49.82 487.678 50.54C486.958 51.236 486.154 51.584 485.266 51.584H476.734C476.734 52.256 477.13 52.82 477.922 53.276C478.714 53.732 479.506 53.96 480.298 53.96C481.69 53.96 482.782 53.816 483.574 53.528L483.97 53.384C484.546 53.12 485.026 52.988 485.41 52.988C486.178 52.988 486.838 53.528 487.39 54.608C487.702 55.256 487.858 55.808 487.858 56.264C487.858 58.4 485.302 59.468 480.19 59.468C478.414 59.468 476.83 59.168 475.438 58.568C474.07 57.944 473.002 57.128 472.234 56.12C470.722 54.176 469.966 52.004 469.966 49.604C469.966 46.58 470.938 44.168 472.882 42.368C474.85 40.544 477.298 39.632 480.226 39.632C483.562 39.632 486.01 40.808 487.57 43.16C488.386 44.408 488.794 45.776 488.794 47.264ZM481.198 48.308C482.11 48.308 482.566 47.924 482.566 47.156C482.566 46.604 482.35 46.16 481.918 45.824C481.51 45.488 480.91 45.32 480.118 45.32C479.35 45.32 478.582 45.644 477.814 46.292C477.046 46.916 476.662 47.588 476.662 48.308H481.198Z" fill="#003466"/>
</svg>
